<?xml version="1.0" encoding="utf-8"?>
<!-- Generator: Adobe Illustrator 22.1.0, SVG Export Plug-In . SVG Version: 6.00 Build 0)  -->
<svg version="1.1" id="Layer_1" xmlns="http://www.w3.org/2000/svg" xmlns:xlink="http://www.w3.org/1999/xlink" x="0px" y="0px"
	 viewBox="0 0 743.7 119.1" style="enable-background:new 0 0 743.7 119.1;" xml:space="preserve">
<style type="text/css">
	.st0{fill:#FFFFFF;}
</style>
<path class="st0" d="M165.9,101.6c-7.2-3.9-12.9-9.2-17-16.1c-4.1-6.9-6.2-14.6-6.2-23.3s2.1-16.4,6.2-23.3
	c4.1-6.9,9.8-12.2,17-16.1c7.2-3.9,15.3-5.8,24.3-5.8c7.6,0,14.4,1.3,20.6,4c6.1,2.7,11.3,6.5,15.4,11.5l-13,12
	c-5.9-6.8-13.2-10.2-22-10.2c-5.4,0-10.2,1.2-14.5,3.6c-4.2,2.4-7.6,5.7-9.9,9.9c-2.4,4.2-3.6,9.1-3.6,14.5c0,5.4,1.2,10.2,3.6,14.5
	c2.4,4.2,5.7,7.6,9.9,9.9s9.1,3.6,14.5,3.6c8.7,0,16.1-3.5,22-10.4l13,12c-4.2,5.1-9.3,9-15.5,11.6c-6.2,2.7-13,4-20.6,4
	C181.2,107.4,173.1,105.5,165.9,101.6z"/>
<path class="st0" d="M318.2,45.2c5.1,5,7.7,12.4,7.7,22.2v38.5h-19.5V70.4c0-5.3-1.2-9.3-3.5-11.9c-2.3-2.6-5.7-3.9-10.1-3.9
	c-4.9,0-8.8,1.5-11.7,4.6c-2.9,3-4.4,7.6-4.4,13.6v33.2h-19.5V13.2h19.5v32.5c2.6-2.6,5.7-4.6,9.4-5.9c3.7-1.4,7.7-2.1,12-2.1
	C306.4,37.7,313.1,40.2,318.2,45.2z"/>
<path class="st0" d="M390.3,40.2c4-1.7,8.5-2.5,13.7-2.5v18c-2.2-0.2-3.6-0.3-4.4-0.3c-5.6,0-10,1.6-13.1,4.7
	c-3.2,3.1-4.8,7.8-4.8,14.1v31.7h-19.5V38.7h18.6v8.9C383.2,44.3,386.4,41.9,390.3,40.2z"/>
<path class="st0" d="M446.7,102.5c-5.6-3-10-7.1-13.2-12.3c-3.2-5.3-4.7-11.2-4.7-17.9c0-6.7,1.6-12.6,4.7-17.9
	c3.2-5.2,7.6-9.4,13.2-12.3c5.6-3,12-4.4,19.1-4.4c7.1,0,13.4,1.5,19,4.4c5.6,3,10,7.1,13.1,12.3s4.8,11.2,4.8,17.9
	c0,6.7-1.6,12.6-4.8,17.9c-3.2,5.2-7.5,9.3-13.1,12.3c-5.6,3-11.9,4.4-19,4.4C458.7,106.9,452.3,105.4,446.7,102.5z M478.1,85.9
	c3.2-3.4,4.8-7.9,4.8-13.6c0-5.7-1.6-10.2-4.8-13.6c-3.2-3.4-7.3-5.1-12.3-5.1s-9.1,1.7-12.4,5.1c-3.3,3.4-4.9,7.9-4.9,13.6
	c0,5.7,1.6,10.2,4.9,13.6c3.3,3.4,7.4,5.1,12.4,5.1S474.9,89.2,478.1,85.9z"/>
<path class="st0" d="M640.5,45.1c5,5,7.4,12.4,7.4,22.3v38.5h-19.5V70.4c0-5.3-1.1-9.3-3.3-11.9c-2.2-2.6-5.4-3.9-9.4-3.9
	c-4.6,0-8.2,1.5-10.9,4.4c-2.7,3-4,7.4-4,13.2v33.7h-19.5V70.4c0-10.6-4.3-15.9-12.7-15.9c-4.5,0-8.1,1.5-10.7,4.4
	c-2.7,3-4,7.4-4,13.2v33.7h-19.5V38.7H553v7.7c2.5-2.8,5.6-5,9.2-6.5c3.6-1.5,7.6-2.2,11.9-2.2c4.7,0,9,0.9,12.9,2.8
	c3.8,1.9,6.9,4.6,9.2,8.2c2.7-3.5,6.2-6.2,10.4-8.1c4.2-1.9,8.8-2.9,13.8-2.9C628.9,37.7,635.6,40.2,640.5,45.1z"/>
<path class="st0" d="M704.9,106.9c-5.2,0-9.6-0.9-13.4-2.6s-6.7-4.2-8.7-7.2c-2-3.1-3-6.6-3-10.5c0-6.2,2.4-11.2,7.1-14.7
	c4.7-3.6,12-5.4,21.8-5.4h15.5c0-4.2-1.3-7.5-3.9-9.8c-2.6-2.3-6.5-3.4-11.6-3.4c-3.6,0-7.1,0.6-10.6,1.7c-3.5,1.1-6.4,2.6-8.8,4.6
	l-7-13.6c3.7-2.6,8.1-4.6,13.2-6c5.1-1.4,10.4-2.1,15.8-2.1c10.4,0,18.4,2.5,24,7.4c5.6,5,8.4,12.4,8.4,22.4v38.4h-18.2 M718.7,91.5
	C718.7,91.5,718.7,91.5,718.7,91.5c3.6-2.2,5.5-6.3,5.5-10.4v-3.3h-13.4c-8,0-12,2.6-12,7.9c0,2.5,1,4.5,2.9,5.9
	c2,1.5,4.6,2.2,8.1,2.2C713.1,93.8,716.1,93,718.7,91.5z"/>
<path class="st0" d="M107.7,59.6c0,6.8,0,13.5,0,20.3c-0.1,7.3-3.3,12.7-9.7,16.3c-8.4,4.7-16.8,9.7-25.1,14.5
	c-3.9,2.2-7.6,4.6-11.6,6.6c-4.2,2.1-8.8,2.5-13.1,0.6c-5.1-2.4-9.9-5.3-14.7-8c-6.5-3.7-13.1-7.5-19.5-11.3c-2.6-1.5-5.1-3-7.5-4.7
	C3,91.4,1.3,87.9,0.5,84c-0.3-1.5-0.4-3-0.4-4.5C0,66.6,0.2,53.6,0,40.7c-0.1-8.5,3.3-14.6,10.9-18.4C14,20.6,17,18.8,20,17
	c6.5-3.8,13-7.6,19.6-11.3c2.8-1.6,5.7-3.3,8.7-4.6c3.6-1.5,7.6-1.6,11.1,0c4.6,2.1,9,4.7,13.4,7.3c7.1,4,14.1,8.1,21.1,12.2
	c2.6,1.5,5.1,3,7.5,4.7c3.3,2.4,5,5.9,5.8,9.8c0.3,1.6,0.4,3.2,0.4,4.8C107.7,46.5,107.7,53,107.7,59.6z M38.8,48.9
	c0-6.1,0-12.2,0-18.4c0-2-0.9-2.7-2.7-1.7c-5.4,3.1-10.8,6.2-16.2,9.3c-1.1,0.7-1.6,1.8-1.6,3.2c0,12.1,0,24.2,0,36.4
	c0,1.5,0.7,2.7,2.1,3.5c3.5,1.9,6.9,3.9,10.3,5.9c6.9,4,13.8,8.1,20.8,12.1c1.4,0.8,2.8,1.3,4.4,0.2c2.2-1.4,4.5-2.6,6.8-3.9
	C69.1,91.8,75.6,88,82,84.3c1.7-1,3.5-2,5.2-3.1c1-0.6,1-1.7,0.2-2.4c-0.4-0.3-0.8-0.6-1.3-0.8c-5.1-2.9-10.2-5.8-15.2-8.8
	c-1.2-0.7-2.3-0.7-3.5,0c-4.2,2.5-8.5,4.9-12.8,7.3c-0.4,0.2-1.1,0.2-1.5,0c-4.5-2.5-8.9-5.2-13.4-7.7c-0.7-0.4-0.9-0.8-0.9-1.6
	C38.8,61.1,38.8,55,38.8,48.9z"/>
</svg>
