<?xml version="1.0" encoding="utf-8"?>
<!-- Generator: Adobe Illustrator 22.1.0, SVG Export Plug-In . SVG Version: 6.00 Build 0)  -->
<svg version="1.1" id="Layer_1" xmlns="http://www.w3.org/2000/svg" xmlns:xlink="http://www.w3.org/1999/xlink" x="0px" y="0px"
	 viewBox="0 0 107.7 119.1" style="enable-background:new 0 0 107.7 119.1;" xml:space="preserve">
<style type="text/css">
	.st0{fill:#FFFFFF;}
</style>
<path class="st0" d="M107.7,59.6c0,6.8,0,13.5,0,20.3c-0.1,7.3-3.3,12.7-9.7,16.3c-8.4,4.7-16.8,9.7-25.1,14.5
	c-3.9,2.2-7.6,4.6-11.6,6.6c-4.2,2.1-8.8,2.5-13.1,0.6c-5.1-2.4-9.9-5.3-14.7-8c-6.5-3.7-13.1-7.5-19.5-11.3c-2.6-1.5-5.1-3-7.5-4.7
	C3,91.4,1.3,87.9,0.5,84c-0.3-1.5-0.4-3-0.4-4.5C0,66.6,0.2,53.6,0,40.7c-0.1-8.5,3.3-14.6,10.9-18.4C14,20.6,17,18.8,20,17
	c6.5-3.8,13-7.6,19.6-11.3c2.8-1.6,5.7-3.3,8.7-4.6c3.6-1.5,7.6-1.6,11.1,0c4.6,2.1,9,4.7,13.4,7.3c7.1,4,14.1,8.1,21.1,12.2
	c2.6,1.5,5.1,3,7.5,4.7c3.3,2.4,5,5.9,5.8,9.8c0.3,1.6,0.4,3.2,0.4,4.8C107.7,46.5,107.7,53,107.7,59.6z M38.8,48.9
	c0-6.1,0-12.2,0-18.4c0-2-0.9-2.7-2.7-1.7c-5.4,3.1-10.8,6.2-16.2,9.3c-1.1,0.7-1.6,1.8-1.6,3.2c0,12.1,0,24.2,0,36.4
	c0,1.5,0.7,2.7,2.1,3.5c3.5,1.9,6.9,3.9,10.3,5.9c6.9,4,13.8,8.1,20.8,12.1c1.4,0.8,2.8,1.3,4.4,0.2c2.2-1.4,4.5-2.6,6.8-3.9
	C69.1,91.8,75.6,88,82,84.3c1.7-1,3.5-2,5.2-3.1c1-0.6,1-1.7,0.2-2.4c-0.4-0.3-0.8-0.6-1.3-0.8c-5.1-2.9-10.2-5.8-15.2-8.8
	c-1.2-0.7-2.3-0.7-3.5,0c-4.2,2.5-8.5,4.9-12.8,7.3c-0.4,0.2-1.1,0.2-1.5,0c-4.5-2.5-8.9-5.2-13.4-7.7c-0.7-0.4-0.9-0.8-0.9-1.6
	C38.8,61.1,38.8,55,38.8,48.9z"/>
</svg>
